<?xml version="1.0" encoding="utf-8"?>
<!-- Generator: Adobe Illustrator 16.0.4, SVG Export Plug-In . SVG Version: 6.00 Build 0)  -->
<!DOCTYPE svg PUBLIC "-//W3C//DTD SVG 1.1//EN" "http://www.w3.org/Graphics/SVG/1.1/DTD/svg11.dtd">
<svg version="1.1" id="Layer_1" xmlns="http://www.w3.org/2000/svg" xmlns:xlink="http://www.w3.org/1999/xlink" x="0px" y="0px"
	 width="240px" height="95px" viewBox="0 105.5 240 95" enable-background="new 0 105.5 240 95" xml:space="preserve">
<path fill="none" stroke="#000000" stroke-width="1.7" stroke-miterlimit="10" d="M21.772,177.513V113 M25.919,177.513V113
	 M32.14,172.674V113"/>
<line fill="none" stroke="#000000" stroke-width="3.7" stroke-miterlimit="10" x1="39.397" y1="172.674" x2="39.397" y2="113"/>
<line fill="none" stroke="#000000" stroke-width="7.7" stroke-miterlimit="10" x1="47.691" y1="172.674" x2="47.691" y2="113"/>
<line fill="none" stroke="#000000" stroke-width="1.7" stroke-miterlimit="10" x1="54.949" y1="172.674" x2="54.949" y2="113"/>
<line fill="none" stroke="#000000" stroke-width="5.7" stroke-miterlimit="10" x1="63.243" y1="172.674" x2="63.243" y2="113"/>
<line fill="none" stroke="#000000" stroke-width="1.7" stroke-miterlimit="10" x1="69.464" y1="172.674" x2="69.464" y2="113"/>
<line fill="none" stroke="#000000" stroke-width="3.7" stroke-miterlimit="10" x1="74.647" y1="172.674" x2="74.647" y2="113"/>
<path fill="none" stroke="#000000" stroke-width="1.7" stroke-miterlimit="10" d="M83.979,172.674V113 M94.346,172.674V113
	 M98.493,172.674V113 M104.714,172.674V113 M113.008,172.674V113 M117.155,177.513V113 M121.303,177.513V113 M125.449,172.674V113
	 M131.67,172.674V113"/>
<line fill="none" stroke="#000000" stroke-width="5.7" stroke-miterlimit="10" x1="142.037" y1="172.674" x2="142.037" y2="113"/>
<line fill="none" stroke="#000000" stroke-width="1.7" stroke-miterlimit="10" x1="148.258" y1="172.674" x2="148.258" y2="113"/>
<line fill="none" stroke="#000000" stroke-width="5.7" stroke-miterlimit="10" x1="156.553" y1="172.674" x2="156.553" y2="113"/>
<line fill="none" stroke="#000000" stroke-width="1.7" stroke-miterlimit="10" x1="164.847" y1="172.674" x2="164.847" y2="113"/>
<path fill="none" stroke="#000000" stroke-width="3.7" stroke-miterlimit="10" d="M170.03,172.674V113 M178.324,172.674V113
	 M184.545,172.674V113 M190.766,172.674V113"/>
<path fill="none" stroke="#000000" stroke-width="1.7" stroke-miterlimit="10" d="M198.023,172.674V113 M204.244,172.674V113
	 M212.538,177.513V113 M216.686,177.513V113"/>
<path fill="#1F1E21" d="M2.381,180.49v-1.677c1.579-0.153,2.681-0.411,3.305-0.771c0.625-0.36,1.09-1.213,1.398-2.558H8.81v17.325
	H6.477V180.49H2.381z"/>
<path fill="#1F1E21" d="M30.736,188.898c0.539-1.109,1.589-2.119,3.153-3.025l2.333-1.35c1.045-0.607,1.778-1.125,2.199-1.556
	c0.665-0.674,0.996-1.445,0.996-2.313c0-1.015-0.304-1.819-0.911-2.415c-0.608-0.597-1.417-0.896-2.43-0.896
	c-1.499,0-2.535,0.57-3.11,1.707c-0.308,0.609-0.478,1.453-0.51,2.534h-2.223c0.023-1.515,0.304-2.75,0.838-3.706
	c0.948-1.685,2.62-2.527,5.018-2.527c1.993,0,3.448,0.539,4.368,1.616c0.919,1.077,1.379,2.276,1.379,3.597
	c0,1.394-0.491,2.584-1.47,3.572c-0.567,0.574-1.583,1.271-3.049,2.09l-1.664,0.924c-0.794,0.438-1.417,0.854-1.871,1.251
	c-0.81,0.705-1.32,1.487-1.531,2.345h9.501v2.066H29.807c0.081-1.504,0.391-2.811,0.929-3.92V188.898z"/>
<path fill="#1F1E21" d="M45.527,191.594c-0.928-1.13-1.392-2.505-1.392-4.125h2.284c0.097,1.125,0.308,1.943,0.631,2.453
	c0.567,0.916,1.591,1.373,3.074,1.373c1.149,0,2.073-0.308,2.77-0.924c0.697-0.615,1.045-1.408,1.045-2.381
	c0-1.199-0.367-2.037-1.1-2.516c-0.733-0.479-1.751-0.717-3.055-0.717c-0.146,0-0.293,0.002-0.444,0.007
	c-0.15,0.004-0.302,0.011-0.455,0.019v-1.932c0.227,0.023,0.417,0.041,0.571,0.049s0.32,0.013,0.498,0.013
	c0.818,0,1.491-0.13,2.017-0.39c0.924-0.453,1.385-1.264,1.385-2.43c0-0.867-0.308-1.534-0.924-2.005s-1.332-0.705-2.15-0.705
	c-1.458,0-2.466,0.486-3.025,1.458c-0.308,0.535-0.482,1.295-0.522,2.283h-2.163c0-1.295,0.259-2.396,0.778-3.305
	c0.89-1.619,2.458-2.43,4.702-2.43c1.774,0,3.146,0.395,4.119,1.185c0.972,0.79,1.458,1.934,1.458,3.433
	c0,1.068-0.287,1.936-0.863,2.6c-0.356,0.413-0.818,0.738-1.385,0.973c0.916,0.252,1.629,0.735,2.144,1.452
	c0.514,0.716,0.771,1.593,0.771,2.63c0,1.661-0.546,3.014-1.64,4.059s-2.645,1.566-4.653,1.566c-2.056-0.01-3.549-0.569-4.476-1.699
	V191.594z"/>
<path fill="#1F1E21" d="M66.312,192.816v-4.252h-7.63v-2.139l7.971-11.056H68.5v11.288h2.564v1.907H68.5v4.253h-2.188V192.816z
	 M66.275,186.658v-7.902l-5.577,7.902H66.275z"/>
<path fill="#1F1E21" d="M75.634,188.38c0.146,1.247,0.725,2.11,1.738,2.587c0.519,0.243,1.118,0.365,1.798,0.365
	c1.296,0,2.256-0.412,2.879-1.238s0.936-1.742,0.936-2.746c0-1.215-0.37-2.154-1.112-2.818c-0.741-0.664-1.629-0.996-2.667-0.996
	c-0.753,0-1.399,0.146-1.938,0.438s-0.999,0.696-1.379,1.215l-1.896-0.109l1.325-9.367h9.039v2.114h-7.399l-0.741,4.835
	c0.405-0.307,0.79-0.539,1.154-0.691c0.648-0.268,1.397-0.402,2.248-0.402c1.596,0,2.949,0.515,4.058,1.543
	c1.109,1.029,1.664,2.333,1.664,3.912c0,1.645-0.508,3.094-1.525,4.35c-1.017,1.255-2.638,1.883-4.865,1.883
	c-1.417,0-2.671-0.399-3.76-1.197c-1.09-0.797-1.7-2.022-1.829-3.675H75.634L75.634,188.38z"/>
<path fill="#1F1E21" d="M98.412,176.861c0.766,1.009,1.148,2.047,1.148,3.116h-2.163c-0.13-0.688-0.336-1.228-0.62-1.616
	c-0.527-0.729-1.324-1.094-2.394-1.094c-1.223,0-2.195,0.564-2.915,1.695c-0.721,1.13-1.122,2.747-1.203,4.854
	c0.501-0.736,1.134-1.287,1.895-1.652c0.697-0.323,1.474-0.486,2.333-0.486c1.458,0,2.73,0.466,3.815,1.398
	c1.085,0.932,1.628,2.32,1.628,4.167c0,1.579-0.514,2.979-1.543,4.198c-1.028,1.219-2.494,1.828-4.398,1.828
	c-1.627,0-3.034-0.617-4.215-1.852c-1.182-1.235-1.774-3.314-1.774-6.24c0-2.162,0.263-3.996,0.79-5.504
	c1.013-2.883,2.863-4.325,5.552-4.325c1.944-0.011,3.299,0.487,4.064,1.503L98.412,176.861z M96.772,190.163
	c0.571-0.773,0.856-1.687,0.856-2.74c0-0.891-0.255-1.739-0.765-2.546c-0.51-0.805-1.438-1.209-2.783-1.209
	c-0.939,0-1.763,0.312-2.473,0.936c-0.709,0.623-1.062,1.563-1.062,2.819c0,1.101,0.322,2.026,0.966,2.776
	c0.644,0.75,1.537,1.124,2.679,1.124C95.34,191.323,96.201,190.93,96.772,190.163L96.772,190.163z"/>
<path fill="#1F1E21" d="M114.594,175.711v1.907c-0.559,0.542-1.302,1.486-2.229,2.83s-1.748,2.794-2.46,4.35
	c-0.705,1.515-1.239,2.896-1.604,4.143c-0.235,0.802-0.54,2.095-0.912,3.876h-2.417c0.55-3.321,1.766-6.627,3.645-9.914
	c1.109-1.928,2.276-3.592,3.499-4.993h-9.622v-2.198H114.594L114.594,175.711z"/>
<path fill="#1F1E21" d="M126.776,182.636c-0.64-0.647-0.96-1.491-0.96-2.527c0-1.296,0.469-2.409,1.406-3.342
	c0.939-0.932,2.27-1.397,3.994-1.397c1.666,0,2.974,0.439,3.92,1.318c0.945,0.879,1.42,1.905,1.42,3.08
	c0,1.085-0.276,1.965-0.826,2.637c-0.308,0.38-0.785,0.753-1.434,1.117c0.724,0.332,1.293,0.713,1.708,1.143
	c0.771,0.81,1.157,1.863,1.157,3.158c0,1.532-0.514,2.83-1.542,3.895s-2.483,1.598-4.362,1.598c-1.692,0-3.125-0.459-4.295-1.379
	s-1.756-2.254-1.756-4.003c0-1.028,0.252-1.918,0.754-2.667c0.504-0.748,1.248-1.321,2.236-1.719
	c-0.612-0.259-1.09-0.57-1.432-0.912L126.776,182.636z M133.837,190.505c0.669-0.546,1.003-1.362,1.003-2.448
	c0-1.125-0.345-1.979-1.033-2.563c-0.688-0.583-1.572-0.875-2.648-0.875c-1.045,0-1.898,0.298-2.559,0.893s-0.99,1.419-0.99,2.473
	c0,0.907,0.303,1.691,0.906,2.352c0.603,0.661,1.535,0.99,2.8,0.99c1.017-0.011,1.855-0.29,2.53-0.829L133.837,190.505z
	 M133.433,181.9c0.54-0.541,0.812-1.184,0.812-1.93c0-0.649-0.26-1.246-0.775-1.791c-0.519-0.543-1.307-0.815-2.365-0.815
	c-1.051,0-1.811,0.272-2.279,0.815s-0.703,1.182-0.703,1.912c0,0.82,0.303,1.461,0.909,1.924s1.321,0.693,2.146,0.693
	c0.965,0.011,1.722-0.259,2.261-0.798L133.433,181.9z"/>
<path fill="#1F1E21" d="M142.225,188.598c0.064,1.207,0.53,2.041,1.396,2.502c0.446,0.243,0.948,0.365,1.508,0.365
	c1.045,0,1.936-0.436,2.672-1.307c0.737-0.87,1.26-2.638,1.568-5.303c-0.486,0.77-1.088,1.311-1.805,1.621
	c-0.717,0.312-1.488,0.469-2.314,0.469c-1.676,0-3.002-0.521-3.979-1.566c-0.977-1.043-1.464-2.387-1.464-4.029
	c0-1.577,0.481-2.965,1.446-4.164c0.964-1.198,2.386-1.795,4.264-1.795c2.535,0,4.285,1.141,5.248,3.424
	c0.535,1.254,0.802,2.825,0.802,4.711c0,2.129-0.32,4.015-0.96,5.658c-1.061,2.736-2.859,4.104-5.395,4.104
	c-1.701,0-2.992-0.446-3.875-1.337s-1.324-2.009-1.324-3.353h2.233H142.225z M147.916,184.17c0.717-0.57,1.075-1.566,1.075-2.99
	c0-1.276-0.322-2.229-0.966-2.856c-0.645-0.626-1.465-0.939-2.461-0.939c-1.068,0-1.918,0.357-2.545,1.073
	c-0.627,0.715-0.941,1.672-0.941,2.869c0,1.133,0.275,2.032,0.826,2.7c0.551,0.667,1.43,1.001,2.637,1.001
	c0.86,0,1.648-0.291,2.363-0.861L147.916,184.17z"/>
<path fill="#1F1E21" d="M165.043,178.199c0.778,1.434,1.167,3.396,1.167,5.893c0,2.365-0.353,4.321-1.058,5.868
	c-1.02,2.22-2.689,3.329-5.006,3.329c-2.09,0-3.645-0.907-4.665-2.722c-0.851-1.515-1.275-3.548-1.275-6.1
	c0-1.976,0.255-3.673,0.765-5.091c0.957-2.641,2.686-3.96,5.188-3.96c2.261,0,3.888,0.923,4.884,2.778V178.199z M162.846,189.789
	c0.673-1.004,1.011-2.875,1.011-5.612c0-1.976-0.243-3.603-0.729-4.878c-0.488-1.275-1.434-1.914-2.836-1.914
	c-1.289,0-2.233,0.605-2.83,1.816s-0.895,2.995-0.895,5.352c0,1.774,0.191,3.199,0.572,4.277c0.584,1.645,1.582,2.466,2.994,2.466
	c1.141,0,2.043-0.497,2.717-1.503L162.846,189.789z"/>
<path fill="#1F1E21" d="M170.32,180.49v-1.677c1.58-0.153,2.682-0.411,3.306-0.771s1.09-1.213,1.397-2.558h1.725v17.325h-2.332
	V180.49h-4.092H170.32z"/>
<path fill="#1F1E21" d="M184.162,188.898c0.539-1.109,1.589-2.119,3.152-3.025l2.332-1.35c1.046-0.607,1.779-1.125,2.199-1.556
	c0.665-0.674,0.996-1.445,0.996-2.313c0-1.015-0.303-1.819-0.91-2.415c-0.607-0.597-1.418-0.896-2.431-0.896
	c-1.498,0-2.534,0.57-3.11,1.707c-0.309,0.609-0.479,1.453-0.51,2.534h-2.225c0.024-1.515,0.305-2.75,0.84-3.706
	c0.947-1.685,2.619-2.527,5.018-2.527c1.992,0,3.448,0.539,4.367,1.616c0.92,1.077,1.379,2.276,1.379,3.597
	c0,1.394-0.49,2.584-1.47,3.572c-0.567,0.574-1.583,1.271-3.049,2.09l-1.664,0.924c-0.794,0.438-1.417,0.854-1.872,1.251
	c-0.809,0.705-1.319,1.487-1.531,2.345h9.502v2.066h-11.944c0.093-1.504,0.404-2.811,0.944-3.92L184.162,188.898z"/>
<path fill="#1F1E21" d="M199.33,182.636c-0.641-0.647-0.961-1.491-0.961-2.527c0-1.296,0.469-2.409,1.407-3.342
	c0.938-0.932,2.27-1.397,3.993-1.397c1.666,0,2.975,0.439,3.92,1.318c0.946,0.879,1.42,1.905,1.42,3.08
	c0,1.085-0.275,1.965-0.825,2.637c-0.308,0.38-0.786,0.753-1.435,1.117c0.725,0.332,1.293,0.713,1.708,1.143
	c0.771,0.81,1.158,1.863,1.158,3.158c0,1.532-0.515,2.83-1.542,3.895c-1.029,1.064-2.484,1.598-4.362,1.598
	c-1.692,0-3.125-0.459-4.296-1.379c-1.17-0.92-1.755-2.254-1.755-4.003c0-1.028,0.251-1.918,0.754-2.667
	c0.503-0.748,1.247-1.321,2.235-1.719c-0.611-0.259-1.089-0.57-1.431-0.912L199.33,182.636z M206.391,190.505
	c0.668-0.546,1.002-1.362,1.002-2.448c0-1.125-0.344-1.979-1.033-2.563c-0.688-0.583-1.571-0.875-2.648-0.875
	c-1.045,0-1.897,0.298-2.558,0.893c-0.661,0.595-0.99,1.419-0.99,2.473c0,0.907,0.302,1.691,0.905,2.352
	c0.604,0.661,1.536,0.99,2.801,0.99c1.016-0.011,1.855-0.29,2.529-0.829L206.391,190.505z M205.986,181.9
	c0.539-0.541,0.811-1.184,0.811-1.93c0-0.649-0.259-1.246-0.775-1.791c-0.518-0.543-1.306-0.815-2.364-0.815
	c-1.052,0-1.811,0.272-2.28,0.815c-0.469,0.543-0.703,1.182-0.703,1.912c0,0.82,0.303,1.461,0.91,1.924
	c0.605,0.463,1.321,0.693,2.146,0.693c0.964,0.011,1.711-0.259,2.261-0.798L205.986,181.9z"/>
<polyline fill="none" stroke="#000000" stroke-width="1.5" stroke-miterlimit="10" points="226.016,177.256 238.457,184.513 
	226.016,191.77 "/>
</svg>
